<svg xmlns="http://www.w3.org/2000/svg" viewBox="0 0 500 500"><g id="freepik--Shadow--inject-2"><ellipse id="freepik--path--inject-2" cx={250} cy="416.24" rx="193.89" ry="11.32" style={{fill: '#f5f5f5'}} /></g><g id="freepik--Application--inject-2"><path d="M383.77,115.13l-1-.06a14.06,14.06,0,0,0-14.12-15H350.54V99h18.09a15.07,15.07,0,0,1,15.14,16.13Z" style={{fill: '#407BFF'}} /><rect x="377.77" y="126.46" width="9.52" height="1.03" transform="translate(232.6 501.11) rotate(-86.53)" style={{fill: '#407BFF'}} /><path d="M352.76,359.77H232.31a11.47,11.47,0,0,1-11.56-12.32L235.1,114.91a13.34,13.34,0,0,1,13.08-12.32H368.63a11.48,11.48,0,0,1,11.55,12.32L365.83,347.45A13.31,13.31,0,0,1,352.76,359.77Z" style={{fill: '#407BFF'}} /><path d="M280.77,155.56H254.49a6.58,6.58,0,0,1-6.63-7.07l1.35-21.86a7.64,7.64,0,0,1,7.5-7.07H283a6.59,6.59,0,0,1,6.63,7.07l-1.35,21.86A7.65,7.65,0,0,1,280.77,155.56Z" style={{opacity: '0.2'}} /><path d="M288.4,339.29a4.25,4.25,0,0,0,4.19-4l2.79-45.07a3.68,3.68,0,0,0-3.71-3.95H224.52l-3.26,53Z" style={{opacity: '0.2'}} /><path d="M218.15,266H197.61a3,3,0,0,0-2.91,2.74l-1.43,23.18a2.55,2.55,0,0,0,2.57,2.74h20.54a2.94,2.94,0,0,0,2.91-2.74l1.43-23.18A2.54,2.54,0,0,0,218.15,266Z" style={{fill: '#407BFF'}} /><path d="M218.15,266H197.61a3,3,0,0,0-2.91,2.74l-1.43,23.18a2.55,2.55,0,0,0,2.57,2.74h20.54a2.94,2.94,0,0,0,2.91-2.74l1.43-23.18A2.54,2.54,0,0,0,218.15,266Z" style={{fill: '#fff', opacity: '0.4'}} /><path d="M368.37,107.73a6.59,6.59,0,0,1,6.68,7.12l-5.28,85.58a3.21,3.21,0,0,1-3.15,3h-129a2.64,2.64,0,0,1-2.67-2.85L240.23,115a7.83,7.83,0,0,1,7.7-7.24H368.37m0-1H247.93a8.86,8.86,0,0,0-8.72,8.21l-5.28,85.58a3.65,3.65,0,0,0,3.69,3.93h129a4.25,4.25,0,0,0,4.18-3.93l5.28-85.58a7.63,7.63,0,0,0-7.71-8.21Z" style={{fill: '#fff'}} /><path d="M303.84,214.48H238.25a5.6,5.6,0,0,0-5.51,5.19L230,263.54a4.81,4.81,0,0,0,4.86,5.18h65.59a5.59,5.59,0,0,0,5.51-5.18l2.71-43.87A4.83,4.83,0,0,0,303.84,214.48Z" style={{fill: '#fff'}} /><path d="M284.18,278.12h-65.6a5.58,5.58,0,0,0-5.5,5.18l-2.71,43.87a4.82,4.82,0,0,0,4.86,5.19h65.6a5.59,5.59,0,0,0,5.5-5.19L289,283.3A4.81,4.81,0,0,0,284.18,278.12Z" style={{fill: '#fff'}} /><path d="M336.5,247a4.85,4.85,0,0,0-4.78,4.5l-2.35,38.06a4.18,4.18,0,0,0,4.22,4.49h35.54L372,247Z" style={{opacity: '0.2'}} /><path d="M385.54,238.66H327.91a4.91,4.91,0,0,0-4.83,4.56l-2.38,38.54a4.23,4.23,0,0,0,4.27,4.56H382.6a4.92,4.92,0,0,0,4.84-4.56l2.38-38.54A4.24,4.24,0,0,0,385.54,238.66Z" style={{fill: '#407BFF'}} /><path d="M385.54,238.66H327.91a4.91,4.91,0,0,0-4.83,4.56l-2.38,38.54a4.23,4.23,0,0,0,4.27,4.56H382.6a4.92,4.92,0,0,0,4.84-4.56l2.38-38.54A4.24,4.24,0,0,0,385.54,238.66Z" style={{fill: '#fff', opacity: '0.7000000000000001'}} /><path d="M428.6,176.39H394.45a4.92,4.92,0,0,0-4.84,4.55l-2.38,38.55a4.24,4.24,0,0,0,4.28,4.55h34.15a4.91,4.91,0,0,0,4.83-4.55l2.38-38.55A4.23,4.23,0,0,0,428.6,176.39Z" style={{fill: '#407BFF'}} /><path d="M428.6,176.39H394.45a4.92,4.92,0,0,0-4.84,4.55l-2.38,38.55a4.24,4.24,0,0,0,4.28,4.55h34.15a4.91,4.91,0,0,0,4.83-4.55l2.38-38.55A4.23,4.23,0,0,0,428.6,176.39Z" style={{fill: '#fff', opacity: '0.7000000000000001'}} /><path d="M397.54,295.32H383.33a2.05,2.05,0,0,0-2,1.9l-1,16a1.76,1.76,0,0,0,1.78,1.89h14.21a2,2,0,0,0,2-1.89l1-16A1.76,1.76,0,0,0,397.54,295.32Z" style={{fill: '#407BFF'}} /><path d="M397.54,295.32H383.33a2.05,2.05,0,0,0-2,1.9l-1,16a1.76,1.76,0,0,0,1.78,1.89h14.21a2,2,0,0,0,2-1.89l1-16A1.76,1.76,0,0,0,397.54,295.32Z" style={{fill: '#fff', opacity: '0.4'}} /><ellipse cx="302.42" cy="199.52" rx="38.23" ry="35.94" transform="translate(-53.58 266.8) rotate(-44.12)" style={{fill: '#407BFF'}} /><ellipse cx="302.42" cy="199.52" rx="34.76" ry="32.68" transform="translate(-53.58 266.8) rotate(-44.12)" style={{fill: '#fff'}} /><ellipse cx="302.98" cy="190.47" rx="12.8" ry="12.04" transform="translate(-47.13 264.63) rotate(-44.12)" style={{fill: '#407BFF'}} /><path d="M301.9,208c-9.68,0-18.35,3.77-23.11,9.35a25.19,25.19,0,0,0,21.79,12,29.05,29.05,0,0,0,23.27-12C319.79,211.75,311.57,208,301.9,208Z" style={{fill: '#407BFF'}} /><path d="M276,150.75H249.67a6.59,6.59,0,0,1-6.63-7.07l1.35-21.86a7.65,7.65,0,0,1,7.51-7.07h26.27a6.58,6.58,0,0,1,6.63,7.07l-1.34,21.86A7.65,7.65,0,0,1,276,150.75Z" style={{fill: '#fff'}} /><polygon points="271.24 132.75 258 123.91 256.91 141.59 271.24 132.75" style={{fill: '#407BFF'}} /><path d="M361.16,134.22H298.44a2.79,2.79,0,0,1-2.81-3l.23-3.82a3.25,3.25,0,0,1,3.19-3h62.72a2.8,2.8,0,0,1,2.82,3l-.24,3.82A3.25,3.25,0,0,1,361.16,134.22Z" style={{fill: '#fff'}} /><path d="M360.14,150.73H297.42a2.8,2.8,0,0,1-2.81-3l.23-3.82a3.26,3.26,0,0,1,3.19-3h62.72a2.8,2.8,0,0,1,2.82,3l-.24,3.82A3.24,3.24,0,0,1,360.14,150.73Z" style={{fill: '#fff'}} /><path d="M380.92,253.75H330.67a1.84,1.84,0,0,1-1.86-2l.09-1.43a2.14,2.14,0,0,1,2.11-2h50.25a1.84,1.84,0,0,1,1.86,2l-.09,1.43A2.14,2.14,0,0,1,380.92,253.75Z" style={{fill: '#fff'}} /><path d="M380.22,265.19H330a1.85,1.85,0,0,1-1.87-2l.09-1.42a2.14,2.14,0,0,1,2.11-2h50.25a1.84,1.84,0,0,1,1.86,2l-.08,1.42A2.15,2.15,0,0,1,380.22,265.19Z" style={{fill: '#fff'}} /><path d="M379.51,276.63H329.26a1.84,1.84,0,0,1-1.86-2l.09-1.43a2.13,2.13,0,0,1,2.1-2h50.25a1.85,1.85,0,0,1,1.87,2l-.09,1.43A2.14,2.14,0,0,1,379.51,276.63Z" style={{fill: '#fff'}} /><ellipse cx="347.25" cy="345.9" rx="4.97" ry="4.67" transform="translate(-142.84 339.3) rotate(-44.12)" style={{fill: '#fff'}} /><path d="M353.13,328.82a5.21,5.21,0,0,1-5.12,4.82,4.48,4.48,0,0,1-4.52-4.82A5.19,5.19,0,0,1,348.6,324,4.48,4.48,0,0,1,353.13,328.82Z" style={{fill: '#fff'}} /><path d="M354.18,311.75a5.2,5.2,0,0,1-5.12,4.82,4.48,4.48,0,0,1-4.52-4.82,5.2,5.2,0,0,1,5.12-4.82A4.48,4.48,0,0,1,354.18,311.75Z" style={{fill: '#fff'}} /><ellipse cx="332.7" cy="345.9" rx="4.97" ry="4.67" transform="translate(-146.94 329.17) rotate(-44.12)" style={{fill: '#fff'}} /><path d="M338.58,328.82a5.21,5.21,0,0,1-5.12,4.82,4.48,4.48,0,0,1-4.52-4.82,5.19,5.19,0,0,1,5.11-4.82A4.48,4.48,0,0,1,338.58,328.82Z" style={{fill: '#fff'}} /><path d="M339.63,311.75a5.2,5.2,0,0,1-5.12,4.82,4.48,4.48,0,0,1-4.52-4.82,5.2,5.2,0,0,1,5.12-4.82A4.48,4.48,0,0,1,339.63,311.75Z" style={{fill: '#fff'}} /></g><g id="freepik--Character--inject-2"><path d="M137.19,201.85l5.65,4.4-7.46,3.92s-3.49-3.75-1.72-6.94Z" style={{fill: '#7f3e3b'}} /><path d="M143.09,213.88l-3.43,1a2.26,2.26,0,0,1-2.72-1.24l-1.56-3.51,7.46-3.92,1.72,4.69A2.25,2.25,0,0,1,143.09,213.88Z" style={{fill: '#7f3e3b'}} /><path d="M160.91,161.55l-3,1.87c-1,.65-2.05,1.31-3.07,2-2,1.35-4,2.71-6,4.13a90.18,90.18,0,0,0-10.9,9l-.6.6-.15.15h0a.18.18,0,0,0,0-.06c0-.05-.11.08-.21.31a7.74,7.74,0,0,0-.51,2.3,34.91,34.91,0,0,0,.17,6.63c.46,4.7,1.44,9.66,2.4,14.47l-5.7,2.16a72.46,72.46,0,0,1-5.91-14.9,38.69,38.69,0,0,1-1.39-8.55,18.65,18.65,0,0,1,.52-5.25,11.89,11.89,0,0,1,1.34-3.17,8.2,8.2,0,0,1,.57-.83l.28-.37.17-.2.68-.82c.9-1.11,1.85-2.11,2.79-3.14s1.94-2,2.94-2.87c2-1.89,4.06-3.59,6.16-5.26s4.27-3.21,6.49-4.69c1.1-.74,2.22-1.45,3.35-2.16s2.24-1.36,3.53-2.07Z" style={{fill: '#407BFF'}} /><path d="M138.57,201.76a44.58,44.58,0,0,1-6.07,2.09.75.75,0,0,0-.51.8c.13,1,.33,1.68.87,1.74s6.52-2,6.94-2.76c.24-.43,0-1.07-.27-1.56A.73.73,0,0,0,138.57,201.76Z" style={{fill: '#263238'}} /><path d="M166.82,197.46l-12-29.48a4.58,4.58,0,0,0-5.63-2.58l-34.11,11.45a4,4,0,0,0-2.43,5.29l12,29.48a4.58,4.58,0,0,0,5.63,2.58l34.11-11.45A4,4,0,0,0,166.82,197.46Z" style={{fill: '#407BFF'}} /><path d="M166.82,197.46l-12-29.48a4.58,4.58,0,0,0-5.63-2.58l-34.11,11.45a4,4,0,0,0-2.43,5.29l12,29.48a4.58,4.58,0,0,0,5.63,2.58l34.11-11.45A4,4,0,0,0,166.82,197.46Z" style={{fill: '#fff', opacity: '0.7000000000000001'}} /><path d="M192.68,129.79c-.14.59,0,1.15.44,1.24s.81-.3,1-.89-.05-1.15-.44-1.25S192.83,129.2,192.68,129.79Z" style={{fill: '#263238'}} /><path d="M192.68,130.92a21.82,21.82,0,0,0,1.57,5.75,3.48,3.48,0,0,1-2.95-.17Z" style={{fill: '#630f0f'}} /><path d="M191.4,126a.3.3,0,0,0,.21,0,2.83,2.83,0,0,1,2.58.15.35.35,0,0,0,.5-.09.35.35,0,0,0-.09-.49,3.56,3.56,0,0,0-3.25-.24.36.36,0,0,0-.2.47A.33.33,0,0,0,191.4,126Z" style={{fill: '#263238'}} /><path d="M171.94,131.9c-.27,5.61-1.65,15.68-6.27,18.33,0,0,.12,5.8,10.07,8.25,10.94,2.71,6.57-4.14,6.57-4.14-5.62-2.9-4.37-7.29-2.3-11.2Z" style={{fill: '#7f3e3b'}} /><path d="M163.77,151.74c-.36-1.91-.74-4.09,1.2-4.27,2.13-.19,13.06,1.77,16.46,4a3.94,3.94,0,0,1,1.48,5.42Z" style={{fill: '#263238'}} /><path d="M111.88,394.46a2.42,2.42,0,0,0,1.7.79c.2,0,.45-.19.54-.65a.84.84,0,0,0-.15-.68c-.68-.91-3.19-1.17-3.29-1.18a.19.19,0,0,0-.18.09.18.18,0,0,0,0,.19A10,10,0,0,0,111.88,394.46Zm1.65-.49a1.1,1.1,0,0,1,.15.16.49.49,0,0,1,.09.4c-.06.33-.21.36-.27.37-.52.12-1.69-.87-2.43-1.75A6.07,6.07,0,0,1,113.53,394Z" style={{fill: '#407BFF'}} /><path d="M110.54,393.05s0,0,.08,0c.87.18,3.09-.1,3.51-.84a.59.59,0,0,0-.13-.73,1,1,0,0,0-.73-.32c-1.13,0-2.67,1.53-2.74,1.59a.2.2,0,0,0,0,.18A.22.22,0,0,0,110.54,393.05Zm3.14-1.34.06.05c.16.18.11.27.08.31-.25.44-1.79.77-2.76.72a4.31,4.31,0,0,1,2.21-1.23A.64.64,0,0,1,113.68,391.71Z" style={{fill: '#407BFF'}} /><path d="M168.37,408.93c1,0,1.88-.14,2.15-.57a.67.67,0,0,0-.09-.78,1,1,0,0,0-.61-.42c-1.29-.34-3.77,1.16-3.88,1.22a.17.17,0,0,0-.07.19.21.21,0,0,0,.16.14A13.06,13.06,0,0,0,168.37,408.93Zm1-1.47a1.87,1.87,0,0,1,.35,0,.63.63,0,0,1,.37.25c.15.23.12.33.08.4-.3.49-2.21.5-3.63.3A7.34,7.34,0,0,1,169.41,407.46Z" style={{fill: '#407BFF'}} /><path d="M166.07,408.72l.07,0c.86-.41,2.5-2,2.27-2.89,0-.2-.22-.45-.71-.5a1.2,1.2,0,0,0-1,.31c-.88.78-.87,2.82-.87,2.9a.18.18,0,0,0,.09.16A.15.15,0,0,0,166.07,408.72Zm1.52-3.06h.11c.32,0,.36.15.37.2.13.51-1,1.79-1.83,2.35a3.81,3.81,0,0,1,.75-2.33A.9.9,0,0,1,167.59,405.66Z" style={{fill: '#407BFF'}} /><polygon points="157.85 408.54 165.39 408.54 166.15 391.07 158.6 391.07 157.85 408.54" style={{fill: '#7f3e3b'}} /><polygon points="102.93 390.85 110.23 392.76 118.31 376.82 111.01 374.91 102.93 390.85" style={{fill: '#7f3e3b'}} /><path d="M110.79,391.89l-6.45-5.48a.68.68,0,0,0-.83,0L98,390.53a1.11,1.11,0,0,0,0,1.74c2.29,1.87,3.5,2.67,6.34,5.08,1.75,1.48,5.48,5.73,7.73,7.95s4.75.27,4-.84A28,28,0,0,1,111.43,393,1.81,1.81,0,0,0,110.79,391.89Z" style={{fill: '#263238'}} /><path d="M165.16,407.66h-8.24a.59.59,0,0,0-.59.52l-.79,6.7a1.22,1.22,0,0,0,1.22,1.34c3-.05,7.24-.22,11-.22,4.37,0,5.11.24,10.23.24,3.09,0,3.63-3.13,2.3-3.42-6-1.29-7.8-1.42-13.23-4.57A3.81,3.81,0,0,0,165.16,407.66Z" style={{fill: '#263238'}} /><path d="M193.33,164.1c-.58,7.61-3.44,23.78-14.33,56.62l-39.64-7.46c.75-5.3,7.88-27.64,9.5-52.82a12.14,12.14,0,0,1,13.7-11.26l.2,0a147.18,147.18,0,0,1,16.85,3.18,71.06,71.06,0,0,1,8.57,3.21A8.58,8.58,0,0,1,193.33,164.1Z" style={{fill: '#407BFF'}} /><path d="M185.8,168.71c-.26,4.28,1.34,13.37,2.74,20.28,1.28-5,2.24-9.14,3-12.68Z" style={{opacity: '0.2'}} /><path d="M193.19,161.78c.95,2.36,2,4.93,3,7.37s2.15,4.91,3.31,7.31a98,98,0,0,0,7.53,13.59c.71,1,1.42,2,2.16,2.84l.14.16-.05,0-.07,0s0,0,0,.07a2.41,2.41,0,0,0,.72.36,11.63,11.63,0,0,0,2.9.52,35.73,35.73,0,0,0,3.62.07,127.83,127.83,0,0,0,15.77-1.87l2,5.78a68.21,68.21,0,0,1-8.05,3.32,60.18,60.18,0,0,1-8.59,2.32,37.93,37.93,0,0,1-4.7.59,22.35,22.35,0,0,1-5.36-.3,12.53,12.53,0,0,1-3.2-1,10.83,10.83,0,0,1-1.74-1,9.52,9.52,0,0,1-.87-.7l-.42-.4-.22-.22a45,45,0,0,1-3.17-3.56,91.17,91.17,0,0,1-9.41-15.05c-1.3-2.58-2.55-5.17-3.68-7.81s-2.22-5.23-3.22-8.07Z" style={{fill: '#407BFF'}} /><path d="M264.62,186.77l-14.23-2.84a2.09,2.09,0,0,0-2.4,1.5l-4.2,15.89a1.8,1.8,0,0,0,1.4,2.26l14.23,2.84a2.1,2.1,0,0,0,2.4-1.5L266,189A1.8,1.8,0,0,0,264.62,186.77Z" style={{opacity: '0.2'}} /><path d="M259.67,179.47l-14.17-3.15a2.1,2.1,0,0,0-2.43,1.45l-4.55,15.79a1.81,1.81,0,0,0,1.36,2.29L254,199a2.09,2.09,0,0,0,2.43-1.45L261,181.76A1.8,1.8,0,0,0,259.67,179.47Z" style={{fill: '#fff'}} /><path d="M231,193.26l4.48-6.57,7.11,6.5s-3.7,5-9.18,4.73Z" style={{fill: '#7f3e3b'}} /><path d="M229.54,193a45.94,45.94,0,0,1,2.24,6,.73.73,0,0,0,.81.49c1-.16,1.67-.37,1.72-.91s-2.16-6.47-2.93-6.87a1.78,1.78,0,0,0-1.55.31A.71.71,0,0,0,229.54,193Z" style={{fill: '#263238'}} /><path d="M244.18,185.68l.88,1.71a3.5,3.5,0,0,1-.72,4.16l-1.76,1.64-7.11-6.5,3.74-2.36A3.49,3.49,0,0,1,244.18,185.68Z" style={{fill: '#7f3e3b'}} /><polygon points="166.14 391.08 165.72 400.9 158.18 400.9 158.6 391.08 166.14 391.08" style={{opacity: '0.2'}} /><polygon points="111.01 374.92 118.31 376.82 113.83 385.65 106.84 383.13 111.01 374.92" style={{opacity: '0.2'}} /><path d="M173.29,123.68c-1.34,7.36-2.5,11.6.24,16.23,4.13,7,13.9,5.85,17.42-1,3.16-6.13,4.83-17.14-1.55-21.78A10.22,10.22,0,0,0,173.29,123.68Z" style={{fill: '#7f3e3b'}} /><path d="M185.91,130.89c3.75,1.45,6-3.94,5-5.88,1.24-.75,6.19-1.9,5.62-5.7s-4.32-4.9-7.06-9.91c-.93.49-.68,3.54-.68,3.54s-2.25-4-8.08-3.93-8-2.34-8-2.34.44,3.8,2.6,4.73c-3.27.92-3.27,6-7.91,6.62,1.06,2,3.65,2,3.65,2s-2.68,2.32-2.15,5.22,3.63,9.89-.08,12.32C176.85,140.43,187.5,137.19,185.91,130.89Z" style={{fill: '#263238'}} /><path d="M184.16,129.69a8.51,8.51,0,0,0,.56,5.41c1,2.21,3,1.64,3.94-.39.83-1.82,1.29-5.16-.33-6.71S184.69,127.51,184.16,129.69Z" style={{fill: '#7f3e3b'}} /><path d="M164.94,218.07S154.69,274.35,150,295.94c-5.14,23.64-31.32,86.9-31.32,86.9l-13.14-4.24s16.44-60.24,23.85-84c1.55-25.34,4.7-65.44,10-81.35Z" style={{fill: '#407BFF'}} /><path d="M164.94,218.07S154.69,274.35,150,295.94c-5.14,23.64-31.32,86.9-31.32,86.9l-13.14-4.24s16.44-60.24,23.85-84c1.55-25.34,4.7-65.44,10-81.35Z" style={{opacity: '0.5'}} /><path d="M121.46,380.06c.05,0-3,4.59-3,4.59l-14.76-4.86,1.75-4.41Z" style={{fill: '#407BFF'}} /><path d="M160.29,237.75c-9.6,1.54-8.9,30-7.78,45.94,2.8-13.9,6.25-32.21,8.79-45.94A6.43,6.43,0,0,0,160.29,237.75Z" style={{opacity: '0.30000000000000004'}} /><path d="M179,220.72s2.13,52.38,1.31,75.37c-.85,23.93-11.74,102.25-11.74,102.25H155.79s-.27-75.29,2.67-100.29c-.62-25.61-5.52-82.24-5.52-82.24Z" style={{fill: '#407BFF'}} /><path d="M179,220.72s2.13,52.38,1.31,75.37c-.85,23.93-11.74,102.25-11.74,102.25H155.79s-.27-75.29,2.67-100.29c-.62-25.61-5.52-82.24-5.52-82.24Z" style={{opacity: '0.5'}} /><path d="M171,393.25c.06,0-.72,5.3-.72,5.3H154.77l-.42-4.73Z" style={{fill: '#407BFF'}} /><path d="M139.36,211.81c-1.31-.06-1.4,3.08-1,4s6.16,1.48,21.44,4.91,19.06,3.61,19.54,3.4,1.45-4.45.51-4.58-16.64-2.65-23.29-4.19S141.22,211.9,139.36,211.81Z" style={{fill: '#263238'}} /></g></svg>
